<svg width="81" height="25" viewBox="0 0 81 25" fill="none" xmlns="http://www.w3.org/2000/svg">
<path d="M7.53917 0.559999C8.52584 0.559999 9.43917 0.799999 10.2792 1.28C11.1192 1.76 11.5392 2.23333 11.5392 2.7C11.5392 3.15333 11.3525 3.38 10.9792 3.38C10.7392 3.38 10.3258 3.12 9.73917 2.6C9.51251 2.4 9.18584 2.22 8.75917 2.06C8.33251 1.9 7.85917 1.82 7.33917 1.82C6.35251 1.82 5.55251 2.09333 4.93917 2.64C4.33917 3.17333 4.03917 3.9 4.03917 4.82C4.03917 5.82 4.81251 6.88667 6.35917 8.02C6.99917 8.48667 7.63917 8.97333 8.27917 9.48C8.91917 9.98667 9.46584 10.5867 9.91917 11.28C10.3725 11.9733 10.5992 12.7133 10.5992 13.5C10.5992 14.98 10.1125 16.1467 9.13917 17C8.17917 17.8533 6.93917 18.28 5.41917 18.28C3.89917 18.28 2.65917 17.8667 1.69917 17.04C1.37917 16.7733 1.09917 16.4467 0.859173 16.06C0.632506 15.66 0.519173 15.32 0.519173 15.04C0.519173 14.4933 0.732506 14.22 1.15917 14.22C1.30584 14.22 1.42584 14.2733 1.51917 14.38C1.62584 14.4733 1.73917 14.6533 1.85917 14.92C1.99251 15.1867 2.09251 15.3733 2.15917 15.48C2.86584 16.4933 3.90584 17 5.27917 17C6.37251 17 7.26584 16.6867 7.95917 16.06C8.65251 15.42 8.99917 14.5933 8.99917 13.58C8.99917 12.5267 8.22584 11.42 6.67917 10.26C6.03917 9.78 5.39251 9.28667 4.73917 8.78C4.09917 8.27333 3.55251 7.68667 3.09917 7.02C2.64584 6.34 2.41917 5.62 2.41917 4.86C2.41917 3.5 2.89917 2.44667 3.85917 1.7C4.83251 0.939999 6.05917 0.559999 7.53917 0.559999ZM20.5332 16.78C20.7732 16.9933 20.9266 17.1467 20.9932 17.24C21.0732 17.32 21.1132 17.4333 21.1132 17.58C21.1132 17.7267 21.0199 17.9067 20.8332 18.12C20.6466 18.3333 20.4866 18.44 20.3532 18.44C19.8999 18.44 19.2199 17.78 18.3132 16.46L16.1132 13.22L15.4132 13.8L14.9332 17.78C14.8932 18.1133 14.5732 18.28 13.9732 18.28C13.6266 18.28 13.4532 18.1467 13.4532 17.88L15.4932 0.779999C15.5466 0.433333 15.8066 0.26 16.2732 0.26C16.7399 0.26 16.9732 0.399999 16.9732 0.679999L15.6332 12C17.3532 10.4667 18.4999 9.42 19.0732 8.86C19.6599 8.3 19.9866 8 20.0532 7.96C20.1332 7.90667 20.2332 7.88 20.3532 7.88C20.4866 7.86667 20.6266 7.93333 20.7732 8.08C20.9332 8.21333 21.0132 8.37333 21.0132 8.56C21.0266 8.73333 20.7866 9.06667 20.2932 9.56C19.8132 10.04 18.7799 10.9467 17.1932 12.28L19.2932 15.26C19.8799 16.0467 20.2932 16.5533 20.5332 16.78ZM30.7273 7.86C30.914 7.86 31.034 7.88667 31.0873 7.94C31.154 7.99333 31.1873 8.1 31.1873 8.26L28.0273 19.82C27.3606 22.26 26.354 23.8133 25.0073 24.48C24.474 24.7333 23.8606 24.86 23.1673 24.86C22.474 24.86 21.8073 24.7133 21.1673 24.42C20.514 24.1267 20.1873 23.86 20.1873 23.62C20.1873 23.4333 20.2806 23.2267 20.4673 23C20.654 22.7867 20.834 22.68 21.0073 22.68L21.2673 22.88C21.4406 23.0267 21.7006 23.1667 22.0473 23.3C22.4073 23.4467 22.8673 23.52 23.4273 23.52C24.0006 23.52 24.5006 23.36 24.9273 23.04C25.794 22.3867 26.6606 20.1867 27.5273 16.44C26.474 17.6667 25.5673 18.28 24.8073 18.28C24.394 18.28 24.154 18.0267 24.0873 17.52L22.8273 8.32C22.8273 8.01333 23.0606 7.86 23.5273 7.86C23.8206 7.86 24.014 7.91333 24.1073 8.02C24.214 8.11333 24.2873 8.31333 24.3273 8.62L25.4473 16.88C25.9406 16.72 26.514 16.2333 27.1673 15.42C27.8206 14.5933 28.2806 13.6733 28.5473 12.66L29.6873 8.36C29.7806 8.02667 30.1273 7.86 30.7273 7.86Z" fill="#315F3E"/>
<path d="M32.8082 18.28C32.5816 18.28 32.4216 18.2467 32.3282 18.18C32.2349 18.1267 32.1882 18.0133 32.1882 17.84V17.7L34.9082 1.18C34.9882 0.74 35.3282 0.52 35.9282 0.52H36.1482C36.3616 0.52 36.5549 0.579999 36.7282 0.699999C36.9016 0.819999 37.0082 0.979999 37.0482 1.18L39.6482 15.12L45.4482 1.18C45.6082 0.766666 45.9349 0.559999 46.4282 0.559999H46.7882C47.3216 0.559999 47.5882 0.766666 47.5882 1.18L46.3282 17.7C46.2882 18.0867 46.0082 18.28 45.4882 18.28C45.2482 18.28 45.0749 18.24 44.9682 18.16C44.8749 18.08 44.8282 17.9267 44.8282 17.7L45.9482 3.58L40.3682 17.44C40.2216 17.8133 39.9149 18 39.4482 18C39.2616 18 39.0749 17.96 38.8882 17.88C38.7016 17.7867 38.5882 17.64 38.5482 17.44L35.9682 3.52L33.7082 17.7C33.6416 18.0867 33.3416 18.28 32.8082 18.28ZM57.9668 13.86C57.9135 14.2867 57.8868 14.78 57.8868 15.34C57.8868 15.9 57.9402 16.42 58.0468 16.9C58.1668 17.38 58.2268 17.6533 58.2268 17.72C58.2268 17.88 58.1002 18.0133 57.8468 18.12C57.6068 18.2267 57.4068 18.28 57.2468 18.28C57.0868 18.28 56.9668 18.22 56.8868 18.1C56.8202 17.98 56.7602 17.8133 56.7068 17.6C56.6668 17.3867 56.6335 17.1933 56.6068 17.02C56.5402 16.58 56.5068 16.2267 56.5068 15.96C55.7602 17.5067 54.5735 18.28 52.9468 18.28C52.0668 18.28 51.4002 17.9933 50.9468 17.42C50.5068 16.8467 50.2868 16.1 50.2868 15.18C50.2868 14.6867 50.5402 12.4133 51.0468 8.36C51.0868 8.02667 51.3468 7.86 51.8268 7.86C52.3202 7.86 52.5668 7.99333 52.5668 8.26C52.0602 12.1133 51.8068 14.4067 51.8068 15.14C51.8068 16.3533 52.3268 16.96 53.3668 16.96C53.9002 16.96 54.3735 16.8067 54.7868 16.5C55.2002 16.1933 55.5335 15.78 55.7868 15.26C56.2402 14.2867 56.5468 13.1733 56.7068 11.92L57.1468 8.36C57.1868 8.02667 57.5002 7.86 58.0868 7.86C58.4735 7.86 58.6668 7.99333 58.6668 8.26L57.9668 13.86ZM66.2751 15.56C66.2751 16.28 65.9951 16.9133 65.4351 17.46C64.8751 18.0067 64.1618 18.28 63.2951 18.28C62.4284 18.28 61.6684 18.1333 61.0151 17.84C60.3618 17.5467 60.0351 17.2867 60.0351 17.06C60.0351 16.8333 60.0818 16.62 60.1751 16.42C60.2818 16.2067 60.4284 16.1 60.6151 16.1C60.6284 16.1 60.7351 16.18 60.9351 16.34C61.1484 16.4867 61.4484 16.64 61.8351 16.8C62.2218 16.96 62.6284 17.04 63.0551 17.04C63.4818 17.04 63.8684 16.9333 64.2151 16.72C64.5751 16.5067 64.7551 16.2 64.7551 15.8C64.7551 15.3867 64.6284 15.0133 64.3751 14.68C64.1351 14.3333 63.8351 14.0267 63.4751 13.76C63.1151 13.48 62.7551 13.2 62.3951 12.92C62.0351 12.6267 61.7284 12.28 61.4751 11.88C61.2351 11.4667 61.1151 11.0267 61.1151 10.56C61.1151 9.84 61.3818 9.21333 61.9151 8.68C62.4618 8.13333 63.1084 7.86 63.8551 7.86C64.6018 7.86 65.2018 7.96 65.6551 8.16C66.1084 8.34667 66.3351 8.54667 66.3351 8.76C66.3351 8.97333 66.2818 9.18 66.1751 9.38C66.0818 9.58 65.9551 9.68 65.7951 9.68C65.7818 9.68 65.7018 9.63333 65.5551 9.54C65.0884 9.24667 64.6018 9.1 64.0951 9.1C63.5884 9.1 63.2018 9.22 62.9351 9.46C62.6818 9.68667 62.5551 9.98667 62.5551 10.36C62.5551 10.7333 62.6818 11.08 62.9351 11.4C63.1884 11.72 63.4951 12.02 63.8551 12.3C64.2284 12.58 64.5951 12.8733 64.9551 13.18C65.3284 13.4733 65.6418 13.8267 65.8951 14.24C66.1484 14.6533 66.2751 15.0933 66.2751 15.56ZM68.8765 18.28C68.6765 18.28 68.5365 18.2533 68.4565 18.2C68.3765 18.1467 68.3365 18.04 68.3365 17.88L69.4765 8.36C69.5165 8.02667 69.7765 7.86 70.2565 7.86C70.7365 7.86 70.9765 7.99333 70.9765 8.26L69.8165 17.78C69.7765 18.1133 69.4632 18.28 68.8765 18.28ZM71.7765 4.16C71.7765 4.98667 71.3965 5.4 70.6365 5.4C70.0365 5.4 69.7365 5.14667 69.7365 4.64C69.7365 3.82667 70.1165 3.42 70.8765 3.42C71.4765 3.42 71.7765 3.66667 71.7765 4.16ZM78.2193 7.86C78.9527 7.86 79.5793 8 80.0993 8.28C80.6193 8.56 80.8793 8.82 80.8793 9.06C80.8793 9.26 80.7993 9.45333 80.6393 9.64C80.4927 9.81333 80.3593 9.9 80.2393 9.9C80.1193 9.9 79.986 9.83333 79.8393 9.7C79.3993 9.3 78.8527 9.1 78.1993 9.1C77.546 9.1 76.9727 9.24 76.4793 9.52C75.9993 9.8 75.626 10.1733 75.3593 10.64C74.8127 11.5867 74.5393 12.6133 74.5393 13.72C74.5393 14.8133 74.766 15.64 75.2193 16.2C75.686 16.76 76.3593 17.04 77.2393 17.04C77.6393 17.04 78.0327 16.9533 78.4193 16.78C78.8193 16.6067 79.1327 16.4333 79.3593 16.26C79.586 16.0733 79.706 15.98 79.7193 15.98C79.866 15.98 79.986 16.08 80.0793 16.28C80.186 16.48 80.2393 16.68 80.2393 16.88C80.2393 17.12 79.886 17.4133 79.1793 17.76C78.486 18.1067 77.8127 18.28 77.1593 18.28C75.7727 18.28 74.7127 17.8933 73.9793 17.12C73.2593 16.3333 72.8993 15.1933 72.8993 13.7C72.8993 12.1933 73.386 10.8467 74.3593 9.66C75.3327 8.46 76.6193 7.86 78.2193 7.86Z" fill="black"/>
</svg>
