<svg width="20" height="17" viewBox="0 0 20 17" fill="#1E1E1E" xmlns="http://www.w3.org/2000/svg">
<path d="M19.1666 2.49999C18.3686 3.06289 17.4851 3.49341 16.55 3.77499C16.0481 3.19791 15.3811 2.7889 14.6392 2.60326C13.8973 2.41762 13.1162 2.46432 12.4017 2.73703C11.6872 3.00975 11.0737 3.49532 10.6441 4.12808C10.2146 4.76085 9.98973 5.51027 9.99998 6.27499V7.10832C8.53551 7.14629 7.08437 6.8215 5.77582 6.16286C4.46727 5.50422 3.34191 4.53218 2.49998 3.33332C2.49998 3.33332 -0.833354 10.8333 6.66665 14.1667C4.95042 15.3316 2.90594 15.9158 0.833313 15.8333C8.33331 20 17.5 15.8333 17.5 6.24999C17.4992 6.01787 17.4769 5.78632 17.4333 5.55832C18.2838 4.71957 18.884 3.66058 19.1666 2.49999Z" stroke="#1E1E1E" stroke-linecap="round" stroke-linejoin="round"/>
</svg>
